<svg xmlns="http://www.w3.org/2000/svg" xmlns:xlink="http://www.w3.org/1999/xlink" version="1.1" width="256" height="256" viewBox="0 0 256 256" xml:space="preserve">

<defs>
</defs>
<g style="stroke: none; stroke-width: 0; stroke-dasharray: none; stroke-linecap: butt; stroke-linejoin: miter; stroke-miterlimit: 10; fill: none; fill-rule: nonzero; opacity: 1;" transform="translate(1.4065934065934016 1.4065934065934016) scale(2.81 2.81)" >
	<circle cx="45" cy="45" r="45" style="stroke: none; stroke-width: 1; stroke-dasharray: none; stroke-linecap: butt; stroke-linejoin: miter; stroke-miterlimit: 10; fill: rgb(216,0,255); fill-rule: nonzero; opacity: 1;" transform="  matrix(1 0 0 1 0 0) "/>
	<path d="M 61.305 73.895 l 5.959 -3.006 c 2.834 -1.43 3.174 -5.342 0.629 -7.239 l -8.995 -6.706 c -1.357 -1.011 -3.182 -1.127 -4.655 -0.294 l -2.613 1.477 c -1.253 0.708 -2.788 0.755 -4.059 0.079 c -6.864 -3.654 -12.123 -8.913 -15.777 -15.777 c -0.676 -1.271 -0.63 -2.806 0.079 -4.059 l 1.477 -2.613 c 0.833 -1.473 0.717 -3.298 -0.294 -4.655 l -6.706 -8.995 c -1.897 -2.545 -5.809 -2.205 -7.239 0.629 l -3.006 5.959 c -1.405 2.785 -1.482 6.068 -0.164 8.894 c 7.733 16.58 19.889 28.736 36.469 36.469 C 55.237 75.377 58.52 75.3 61.305 73.895 z" style="stroke: none; stroke-width: 1; stroke-dasharray: none; stroke-linecap: butt; stroke-linejoin: miter; stroke-miterlimit: 10; fill: rgb(255,255,255); fill-rule: nonzero; opacity: 1;" transform=" matrix(1 0 0 1 0 0) " stroke-linecap="round" />
	<path d="M 72.275 50.419 c -1.505 0 -2.725 -1.22 -2.725 -2.725 c 0 -15.023 -12.222 -27.245 -27.245 -27.245 c -1.505 0 -2.725 -1.22 -2.725 -2.725 c 0 -1.505 1.22 -2.725 2.725 -2.725 C 60.333 15 75 29.667 75 47.694 C 75 49.199 73.78 50.419 72.275 50.419 z" style="stroke: none; stroke-width: 1; stroke-dasharray: none; stroke-linecap: butt; stroke-linejoin: miter; stroke-miterlimit: 10; fill: rgb(255,255,255); fill-rule: nonzero; opacity: 1;" transform=" matrix(1 0 0 1 0 0) " stroke-linecap="round" />
	<path d="M 61.377 50.419 c -1.505 0 -2.725 -1.22 -2.725 -2.725 c 0 -9.014 -7.333 -16.347 -16.347 -16.347 c -1.505 0 -2.725 -1.22 -2.725 -2.725 c 0 -1.505 1.22 -2.725 2.725 -2.725 c 12.019 0 21.796 9.778 21.796 21.796 C 64.102 49.199 62.882 50.419 61.377 50.419 z" style="stroke: none; stroke-width: 1; stroke-dasharray: none; stroke-linecap: butt; stroke-linejoin: miter; stroke-miterlimit: 10; fill: rgb(255,255,255); fill-rule: nonzero; opacity: 1;" transform=" matrix(1 0 0 1 0 0) " stroke-linecap="round" />
</g>
</svg>